<svg xmlns="http://www.w3.org/2000/svg" viewBox="0 0 48 48"><path d="M24 4c-2.682 0-5.248.53-7.59 1.49a1.5 1.5 0 1 0 1.139 2.776A16.948 16.948 0 0 1 24 7c9.406 0 17 7.594 17 17 0 4.85-2.02 9.205-5.268 12.303a1.5 1.5 0 1 0 2.07 2.17A19.958 19.958 0 0 0 44 24c0-11.028-8.972-20-20-20zm-13.854 6.252a1.5 1.5 0 0 0-1.15.523A19.943 19.943 0 0 0 4 24c0 11.028 8.972 20 20 20 2.342 0 4.595-.405 6.688-1.146a1.5 1.5 0 1 0-1.002-2.829A16.97 16.97 0 0 1 24 41c-9.406 0-17-7.594-17-17 0-4.318 1.602-8.243 4.246-11.24a1.5 1.5 0 0 0-1.1-2.508zM15.5 13a2.5 2.5 0 0 0 0 5 2.5 2.5 0 0 0 0-5zM14 20a1 1 0 0 0-1 1v13a1 1 0 0 0 1 1h3a1 1 0 0 0 1-1V21a1 1 0 0 0-1-1h-3zm7 0a1 1 0 0 0-1 1v13a1 1 0 0 0 1 1h3a1 1 0 0 0 1-1v-7.5c0-1.379 1.121-2.5 2.5-2.5s2.5 1.121 2.5 2.5V34a1 1 0 0 0 1 1h3a1 1 0 0 0 1-1v-8c0-3.309-2.691-6-6-6a5.965 5.965 0 0 0-4 1.541V21a1 1 0 0 0-1-1h-3z"/></svg>