<svg xmlns="http://www.w3.org/2000/svg" viewBox="0 0 48 48"><path d="M10.5 8C6.928 8 4 10.928 4 14.5v19c0 3.572 2.928 6.5 6.5 6.5h17.904a1.5 1.5 0 1 0 0-3H10.5C8.55 37 7 35.45 7 33.5v-19c0-1.95 1.55-3.5 3.5-3.5h1.756a1.5 1.5 0 1 0 0-3H10.5zm8.84 0a1.5 1.5 0 1 0 0 3H37.5c1.95 0 3.5 1.55 3.5 3.5v1.105l-16.762 9.061a1.5 1.5 0 0 0-.002 0 .493.493 0 0 1-.472 0 1.5 1.5 0 0 0-.002 0l-12.229-6.61a1.5 1.5 0 1 0-1.426 2.64l12.227 6.609a3.505 3.505 0 0 0 3.332 0L41 19.015V33.5c0 1.95-1.55 3.5-3.5 3.5h-2.969a1.5 1.5 0 1 0 0 3H37.5c3.572 0 6.5-2.928 6.5-6.5V16.734a1.5 1.5 0 0 0 0-.48V14.5c0-3.572-2.928-6.5-6.5-6.5H19.34z"/></svg>