<svg xmlns="http://www.w3.org/2000/svg" viewBox="0 0 48 48"><path d="M13.5 6C9.375 6 6 9.375 6 13.5v21c0 4.125 3.375 7.5 7.5 7.5h6.352a1.5 1.5 0 1 0 0-3H13.5A4.477 4.477 0 0 1 9 34.5v-21C9 10.997 10.997 9 13.5 9h12.818a1.5 1.5 0 1 0 0-3H13.5zm18.648 0a1.5 1.5 0 1 0 0 3H34.5c2.503 0 4.5 1.997 4.5 4.5v21c0 2.503-1.997 4.5-4.5 4.5h-8.734a1.5 1.5 0 1 0 0 3H34.5c4.125 0 7.5-3.375 7.5-7.5v-21C42 9.375 38.625 6 34.5 6h-2.352zm-14.175 7.92c-2.876-.124-4.041 2.104-4.041 2.752 0 .449-.614 5.842 5.47 11.926 6.084 6.084 11.478 5.47 11.926 5.47.648 0 2.876-1.164 2.752-4.04a1.582 1.582 0 0 0-.744-1.253c-.5-.32-1.274-.816-2.283-1.46a3.031 3.031 0 0 0-3.07-.104l-.876.373a1.611 1.611 0 0 1-1.55.17 10.002 10.002 0 0 1-3.178-2.133 10.002 10.002 0 0 1-2.133-3.178 1.608 1.608 0 0 1 .17-1.55l.373-.875c.526-.96.486-2.15-.103-3.07l-1.461-2.284a1.585 1.585 0 0 0-1.252-.744z"/></svg>